HIERARCHY
ROOT Hips
{
	OFFSET 0.000000 0.000000 0.000000
	CHANNELS 6 Xposition Yposition Zposition Xrotation Yrotation Zrotation
	JOINT LeftUpLeg_virtual
	{
		OFFSET 0.000000 0.000000 0.000000
		CHANNELS 3 Xrotation Yrotation Zrotation
		JOINT LeftUpLeg
		{
			OFFSET 15.427100 -6.655098 0.678600
			CHANNELS 3 Xrotation Yrotation Zrotation
			JOINT LeftLeg
			{
				OFFSET 4.081073 -39.591068 13.024000
				CHANNELS 3 Xrotation Yrotation Zrotation
				JOINT LeftFoot
				{
					OFFSET -4.081074 -37.707932 -15.979700
					CHANNELS 3 Xrotation Yrotation Zrotation
					JOINT LeftToeBase
					{
						OFFSET 5.346399 -15.068900 20.645000
						CHANNELS 3 Xrotation Yrotation Zrotation
						JOINT LeftToe_End
						{
							OFFSET 2.754700 0.931300 11.300900
							CHANNELS 3 Xrotation Yrotation Zrotation
							End Site
							{
								OFFSET 0 0 0
							}
						}
					}
				}
			}
		}
	}
	JOINT RightUpLeg_virtual
	{
		OFFSET 0.000000 0.000000 0.000000
		CHANNELS 3 Xrotation Yrotation Zrotation
		JOINT RightUpLeg
		{
			OFFSET -15.569500 -6.655098 0.678600
			CHANNELS 3 Xrotation Yrotation Zrotation
			JOINT RightLeg
			{
				OFFSET -4.081825 -39.591045 13.023800
				CHANNELS 3 Xrotation Yrotation Zrotation
				JOINT RightFoot
				{
					OFFSET 4.081824 -37.707954 -15.979600
					CHANNELS 3 Xrotation Yrotation Zrotation
					JOINT RightToeBase
					{
						OFFSET -5.346400 -15.068900 20.645000
						CHANNELS 3 Xrotation Yrotation Zrotation
						JOINT RightToe_End
						{
							OFFSET -2.754700 0.931300 11.300900
							CHANNELS 3 Xrotation Yrotation Zrotation
							End Site
							{
								OFFSET 0 0 0
							}
						}
					}
				}
			}
		}
	}
	JOINT Spine_virtual
	{
		OFFSET 0.000000 0.000000 0.000000
		CHANNELS 3 Xrotation Yrotation Zrotation
		JOINT Spine
		{
			OFFSET -0.279200 12.230698 -2.892100
			CHANNELS 3 Xrotation Yrotation Zrotation
			JOINT Spine1
			{
				OFFSET -0.232667 10.192268 -1.242267
				CHANNELS 3 Xrotation Yrotation Zrotation
				JOINT Spine1_split
				{
					OFFSET -0.232667 10.192268 -1.242267
					CHANNELS 3 Xrotation Yrotation Zrotation
					JOINT Spine2
					{
						OFFSET -0.232667 10.192268 -1.242267
						CHANNELS 3 Xrotation Yrotation Zrotation
						JOINT Neck_virtual
						{
							OFFSET 0.000000 0.000000 0.000000
							CHANNELS 3 Xrotation Yrotation Zrotation
							JOINT Neck
							{
								OFFSET -0.418800 17.814194 8.416900
								CHANNELS 3 Xrotation Yrotation Zrotation
								JOINT Head
								{
									OFFSET 0.000000 7.031097 3.806800
									CHANNELS 3 Xrotation Yrotation Zrotation
									JOINT HeadTop_End
									{
										OFFSET 0.000000 24.646606 12.978600
										CHANNELS 3 Xrotation Yrotation Zrotation
										End Site
										{
											OFFSET 0 0 0
										}
									}
								}
							}
						}
						JOINT LeftShoulder_virtual
						{
							OFFSET 0.000000 0.000000 0.000000
							CHANNELS 3 Xrotation Yrotation Zrotation
							JOINT LeftShoulder
							{
								OFFSET 8.476499 7.247704 -3.868750
								CHANNELS 3 Xrotation Yrotation Zrotation
								JOINT LeftShoulder_split
								{
									OFFSET 8.476499 7.247704 -3.868750
									CHANNELS 3 Xrotation Yrotation Zrotation
									JOINT LeftArm
									{
										OFFSET 9.308998 -2.777710 0.208600
										CHANNELS 3 Xrotation Yrotation Zrotation
										JOINT LeftForeArm
										{
											OFFSET 29.972298 0.000000 0.000000
											CHANNELS 3 Xrotation Yrotation Zrotation
											JOINT LeftHand
											{
												OFFSET 26.026505 0.000000 0.000000
												CHANNELS 3 Xrotation Yrotation Zrotation
												End Site
												{
													OFFSET 0 0 0
												}
											}
										}
									}
								}
							}
						}
						JOINT RightShoulder_virtual
						{
							OFFSET 0.000000 0.000000 0.000000
							CHANNELS 3 Xrotation Yrotation Zrotation
							JOINT RightShoulder
							{
								OFFSET -7.570500 7.247704 -3.868750
								CHANNELS 3 Xrotation Yrotation Zrotation
								JOINT RightShoulder_split
								{
									OFFSET -7.570500 7.247704 -3.868750
									CHANNELS 3 Xrotation Yrotation Zrotation
									JOINT RightArm
									{
										OFFSET -9.308998 -2.777710 0.208500
										CHANNELS 3 Xrotation Yrotation Zrotation
										JOINT RightForeArm
										{
											OFFSET -29.972300 0.000000 0.000000
											CHANNELS 3 Xrotation Yrotation Zrotation
											JOINT RightHand
											{
												OFFSET -26.026505 0.000000 0.000000
												CHANNELS 3 Xrotation Yrotation Zrotation
												End Site
												{
													OFFSET 0 0 0
												}
											}
										}
									}
								}
							}
						}
					}
				}
			}
		}
	}
}
MOTION
Frames: 5
Frame Time: 0.03333333
2.256045 95.912674 -1.587933 0.000000 0.000000 0.000000 2.689041 -31.778954 1.055180 -13.832656 16.324060 14.554418 14.988681 11.686418 -2.336324 -4.871652 -3.414740 -6.011641 3.407601 -0.228998 -1.171373 0.000000 0.000000 0.000000 4.094263 -31.379685 1.205366 -7.491514 1.718856 -7.149937 7.219487 7.778721 -0.545960 -1.392829 -0.490987 3.505434 -4.815003 0.152921 -0.690373 0.000000 0.000000 0.000000 3.666458 -29.801160 0.782485 8.822225 1.814279 -0.201953 0.811995 -0.803798 2.084979 0.081078 -0.592119 1.012622 0.000000 0.000000 0.000000 1.918385 -0.243005 2.226188 -4.694806 21.139815 -6.183618 -6.132780 13.363986 0.063397 0.000000 0.000000 0.000000 1.523018 -0.621552 2.666773 0.838348 -10.779898 -1.157440 2.329391 -0.270271 1.082010 -59.891743 0.347094 -37.264027 7.166864 -59.975502 9.390140 0.000000 0.000000 0.000000 0.484397 -0.605204 2.817444 4.083362 7.701069 6.999183 -2.563241 -3.209344 -1.822175 -1.544623 2.913203 65.657304 13.032553 24.587651 -4.280562 0.000000 0.000000 0.000000 
2.294933 95.721947 -1.802551 0.000000 0.000000 0.000000 2.701772 -32.239575 1.344873 -13.841608 16.664989 14.386571 15.025141 11.515558 -2.258608 -5.012494 -3.750025 -5.991279 3.064457 -0.191960 -1.191726 0.000000 0.000000 0.000000 4.120549 -31.658941 1.430899 -7.574103 1.151559 -7.469211 7.392122 7.668949 -0.459389 -1.228840 -0.398405 3.887155 -5.655417 0.036352 -0.567572 0.000000 0.000000 0.000000 3.521608 -29.847872 0.810839 8.846144 1.773137 -0.334770 0.754764 -0.839557 2.132281 0.209097 -0.808443 1.220571 0.000000 0.000000 0.000000 1.939936 -0.286293 2.307876 -4.339639 21.593805 -6.233928 -6.104576 13.814933 -0.141641 0.000000 0.000000 0.000000 1.379840 -0.648169 2.691704 0.802318 -10.161575 -1.385721 2.282443 -0.508019 1.132505 -59.759238 0.584500 -36.925280 7.125360 -60.058379 9.195261 0.000000 0.000000 0.000000 0.422349 -0.654473 2.893398 3.970624 7.719762 7.333767 -2.548493 -3.607091 -1.761954 -0.841466 2.932710 65.184928 13.111389 24.398081 -4.310870 0.000000 0.000000 0.000000 
2.388174 95.429581 -2.077374 0.000000 0.000000 0.000000 2.970303 -32.204967 1.699768 -13.982392 16.750096 14.137800 15.228062 11.212065 -2.127799 -4.962577 -4.453040 -6.019948 2.841997 -0.127579 -1.175867 0.000000 0.000000 0.000000 4.139172 -31.607766 1.773150 -7.659565 0.472265 -8.058973 8.092964 7.449281 -0.369380 -1.910513 -0.258026 4.448244 -5.405599 -0.092023 -0.477740 0.000000 0.000000 0.000000 3.503996 -29.680191 0.938550 8.699382 1.673278 -0.594444 0.694185 -0.841398 2.216529 0.414129 -1.032651 1.293919 0.000000 0.000000 0.000000 1.870671 -0.296744 2.438810 -4.116205 22.657653 -6.221808 -5.915152 15.365468 -0.523144 0.000000 0.000000 0.000000 1.265937 -0.641999 2.733850 0.774303 -9.015563 -1.505954 2.301853 -0.745735 1.147800 -59.494103 1.322816 -36.221292 6.627630 -60.384002 8.581429 0.000000 0.000000 0.000000 0.400873 -0.657781 2.991916 3.895291 7.804509 7.740630 -2.536810 -3.590590 -1.706131 0.123909 2.714782 64.529032 13.194470 24.353232 -4.317531 0.000000 0.000000 0.000000 
2.498253 95.125763 -2.260174 0.000000 0.000000 0.000000 3.431729 -31.655420 2.017257 -14.282882 16.601442 13.911157 15.397700 10.940054 -1.985549 -4.819151 -5.378200 -6.015611 2.909925 -0.037725 -1.165701 0.000000 0.000000 0.000000 4.270899 -31.107209 2.107274 -7.742870 -0.120456 -8.751628 8.987785 7.136497 -0.281317 -3.243411 0.005550 5.393360 -4.330026 -0.183207 -0.576583 0.000000 0.000000 0.000000 3.618688 -29.296245 1.077582 8.434568 1.556859 -0.876764 0.628887 -0.773677 2.300608 0.360156 -1.173995 1.207094 0.000000 0.000000 0.000000 1.691109 -0.244945 2.569068 -4.034812 24.234672 -6.217539 -5.594591 17.777640 -1.062315 0.000000 0.000000 0.000000 1.210898 -0.574664 2.757173 0.756924 -7.448155 -1.514793 2.377201 -0.834353 1.268692 -59.086512 2.528317 -35.105530 5.726331 -60.806872 7.622844 0.000000 0.000000 0.000000 0.414917 -0.577370 3.066781 3.851368 7.977003 8.133937 -2.399106 -3.147980 -1.694341 1.103385 2.363255 63.867398 13.281151 24.422438 -4.294309 0.000000 0.000000 0.000000 
2.625243 94.839722 -2.325188 0.000000 0.000000 0.000000 3.990286 -30.725807 2.209482 -14.849342 16.251342 13.726237 15.531630 10.739745 -1.837006 -4.655180 -6.368542 -5.958902 3.231209 0.069784 -1.179630 0.000000 0.000000 0.000000 4.566728 -30.259227 2.324984 -7.849522 -0.575224 -9.347409 9.904678 6.793653 -0.263070 -4.827786 0.339971 7.109301 -3.656111 -0.206456 -0.958609 0.000000 0.000000 0.000000 3.884902 -28.766185 1.196320 8.058918 1.491948 -1.067907 0.564742 -0.618204 2.345000 0.301641 -1.270701 1.068463 0.000000 0.000000 0.000000 1.445329 -0.099376 2.637308 -4.032220 26.248171 -6.302966 -5.226402 20.783951 -1.739422 0.000000 0.000000 0.000000 1.217872 -0.407852 2.728251 0.749017 -5.607663 -1.440499 2.456793 -0.814546 1.438920 -58.531368 4.113804 -33.638012 4.676506 -61.240173 6.537239 0.000000 0.000000 0.000000 0.468791 -0.384693 3.068730 3.816910 8.195792 8.468384 -2.180864 -2.459022 -1.773929 1.904913 1.971463 63.316680 13.352896 24.501794 -4.245187 0.000000 0.000000 0.000000 
